<?xml version="1.0" encoding="UTF-8"?><svg id="Layer_2" xmlns="http://www.w3.org/2000/svg" viewBox="0 0 1100 484"><defs><style>.cls-1{fill:#fff;}.cls-2{fill:#fd4c1f;}</style></defs><g id="Layer_1-2"><g><path class="cls-2" d="M1100,57.52c0-16.46-7.05-32.06-19.34-42.82-8.57-7.5-19.24-12.26-30.66-13.8V0H59.3C26.55,0,0,26.55,0,59.3V433.64c0,17.39,8.88,32.7,22.36,41.66,8.11,5.49,17.9,8.7,28.43,8.7h999.21v-.36c18.33-.08,35.16-10.19,43.84-26.36,6.31-11.77,7.57-25.36,3.9-37.79,1.49-5.54,2.27-11.28,2.27-17.05v-5.2c0-7.71-1.33-15.11-3.79-21.99,2.48-6.46,3.79-13.4,3.79-20.49v-110.69c0-12.33-.99-30.22-9-47.84,8.02-17.73,9-35.7,9-48.05V57.52Z"/><path class="cls-1" d="M50,314.2V170.11c0-4.29,2.86-7.16,7.63-7.16h93.99c4.77,0,8.11,2.86,8.11,7.16v91.13c0,4.29,2.86,7.16,7.63,7.16h6.2c4.77,0,8.11-2.86,8.11-7.16v-117.37H70.52c-4.77,0-8.11-2.86-8.11-7.16V57.52c0-4.29,3.34-7.16,8.11-7.16h211.84c4.77,0,8.11,2.86,8.11,7.16V314.2c0,31.01-21.95,47.71-62.98,47.71H112.98c-41.03,0-62.98-16.7-62.98-47.71Zm487.12,47.71h-93.99c-4.77,0-8.11-2.86-8.11-7.16l-.95-19.08h-28.15l-.95,19.56c-.48,4.29-3.82,6.68-8.59,6.68h-93.04c-5.25,0-8.59-2.86-8.11-7.63l30.54-297.24c.48-4.77,3.34-6.68,7.63-6.68h173.19c4.77,0,7.63,1.91,8.11,6.68l30.53,297.24c.48,4.77-2.86,7.63-8.11,7.63Zm-107.35-101.15l-6.2-119.28h-6.68l-6.68,119.28h19.56Zm120.7,53.44V98.07c0-31.01,21.95-47.71,62.98-47.71h114.51c41.03,0,62.98,16.7,62.98,47.71v91.13c0,4.29-3.34,7.16-8.11,7.16h-94.47c-4.77,0-7.63-2.86-7.63-7.16v-38.17c0-4.29-3.34-7.16-8.11-7.16h-4.77c-4.77,0-7.63,2.86-7.63,7.16v110.21c0,4.29,2.86,7.16,7.63,7.16h4.77c4.77,0,8.11-2.86,8.11-7.16v-39.12c0-4.29,2.86-7.16,7.63-7.16h94.47c4.77,0,8.11,2.86,8.11,7.16v92.08c0,31.01-21.95,47.71-62.98,47.71h-114.51c-41.03,0-62.98-16.7-62.98-47.71ZM809.54,57.52c0-4.29,2.86-7.16,7.63-7.16h93.99c4.77,0,8.11,2.86,8.11,7.16v92.08h12.41c4.77,0,8.11-2.86,8.11-7.16V57.52c0-4.29,2.86-7.16,7.63-7.16h94.47c4.77,0,8.11,2.86,8.11,7.16v90.65c0,22.42-4.77,40.08-30.06,48.19,25.29,8.11,30.06,25.29,30.06,47.71v110.69c0,4.29-3.34,7.16-8.11,7.16h-49.62c-34.35,0-52.48-16.7-52.48-47.71v-64.41c0-4.29-3.34-7.16-8.11-7.16h-12.41v112.12c0,4.29-3.34,7.16-8.11,7.16h-93.99c-4.77,0-7.63-2.86-7.63-7.16V57.52Z"/><path class="cls-1" d="M107.21,433.64H50v-52.01h57.21c8.54,0,15.53,6.98,15.53,15.6,0,4.01-1.49,7.58-3.94,10.4,2.45,2.75,3.94,6.39,3.94,10.4,0,8.54-6.98,15.6-15.53,15.6Zm-46.81-31.21h46.81c2.82,0,5.2-2.3,5.2-5.2s-2.38-5.2-5.2-5.2H60.4v10.4Zm0,20.73h46.81c2.82,0,5.2-2.3,5.2-5.13s-2.38-5.2-5.2-5.2H60.4v10.33Zm154.53-41.53v36.41c0,2.82,2.3,5.13,5.2,5.13h41.53c2.9,0,5.2-2.3,5.28-5.13v-36.41h10.4v36.41c0,8.54-6.98,15.6-15.68,15.6h-41.53c-8.62,0-15.68-7.06-15.68-15.6v-36.41h10.48Zm205.8,35.66l10.85,16.35h-12.48l-10.4-15.6h-39.23v15.6h-10.4v-52.01h57.21c8.62,0,15.53,6.98,15.53,15.6v5.2c0,7.06-4.61,13-11.07,14.86Zm.74-20.06c0-2.82-2.38-5.2-5.2-5.2h-46.81v15.6h46.81c2.82,0,5.2-2.3,5.2-5.2v-5.2Zm107.65-15.6h57.21v10.4h-57.21c-2.82,0-5.13,2.38-5.13,5.2v20.8c0,2.82,2.3,5.13,5.13,5.13h41.61c2.75,0,5.27-2.3,5.27-5.13v-5.2h-31.28v-10.4h41.61v15.6c0,8.54-6.98,15.6-15.6,15.6h-41.61c-8.54,0-15.6-7.06-15.6-15.6v-20.8c0-8.62,7.06-15.6,15.6-15.6Zm149.4,0v36.41c0,2.82,2.3,5.13,5.2,5.13h41.53c2.9,0,5.2-2.3,5.27-5.13v-36.41h10.4v36.41c0,8.54-6.98,15.6-15.68,15.6h-41.53c-8.62,0-15.68-7.06-15.68-15.6v-36.41h10.48Zm159.81,0h57.21v10.4h-57.21c-2.9,0-5.2,2.38-5.2,5.2v5.2h62.41v10.4h-62.41v5.2c0,2.82,2.3,5.13,5.2,5.13h57.21v10.48h-57.21c-8.62,0-15.68-7.06-15.68-15.6v-20.8c0-8.62,7.06-15.6,15.68-15.6Zm200.59,35.66l10.85,16.35h-12.48l-10.4-15.6h-39.23v15.6h-10.4v-52.01h57.21c8.62,0,15.53,6.98,15.53,15.6v5.2c0,7.06-4.61,13-11.07,14.86Zm.74-20.06c0-2.82-2.38-5.2-5.2-5.2h-46.81v15.6h46.81c2.82,0,5.2-2.3,5.2-5.2v-5.2Z"/></g></g></svg>